<svg xmlns="http://www.w3.org/2000/svg" xmlns:xlink="http://www.w3.org/1999/xlink" width="16" height="16" viewBox="0 0 16 16">
  <defs>
    <clipPath id="clip-path">
      <rect width="16" height="16" fill="none"/>
    </clipPath>
    <clipPath id="clip-path-2">
      <rect id="矩形_3900" data-name="矩形 3900" width="16" height="16" transform="translate(1040 131)" fill="#fff" stroke="#707070" stroke-width="1"/>
    </clipPath>
  </defs>
  <g id="保费测算16x16" clip-path="url(#clip-path)">
    <g id="蒙版组_303" data-name="蒙版组 303" transform="translate(-1040 -131)" clip-path="url(#clip-path-2)">
      <g id="组_8854" data-name="组 8854" transform="translate(1041 131)">
        <path id="路径_5668" data-name="路径 5668" d="M665.832,181H654.168A1.155,1.155,0,0,0,653,182.142v13.717A1.155,1.155,0,0,0,654.168,197h11.665A1.155,1.155,0,0,0,667,195.858V182.142A1.155,1.155,0,0,0,665.832,181Zm0,14.288a.577.577,0,0,1-.584.571h-10.5a.577.577,0,0,1-.584-.571V182.712a.577.577,0,0,1,.584-.571h10.5a.577.577,0,0,1,.584.571Zm0,0" transform="translate(-653 -181)" fill="#666"/>
        <path id="路径_5669" data-name="路径 5669" d="M756.566,290.208a1.155,1.155,0,0,0-1.168,1.142v.011a1.168,1.168,0,0,0,2.335,0v-.011a1.155,1.155,0,0,0-1.168-1.142Zm3.5,0a1.155,1.155,0,0,0-1.168,1.142v.011a1.168,1.168,0,0,0,2.335,0v-.011a1.155,1.155,0,0,0-1.168-1.142Zm3.5,0a1.155,1.155,0,0,0-1.168,1.142v.011a1.168,1.168,0,0,0,2.335,0v-.011a1.155,1.155,0,0,0-1.168-1.142Zm-6.993,3.461a1.155,1.155,0,0,0-1.168,1.142v.011a1.168,1.168,0,0,0,2.335,0v-.011a1.155,1.155,0,0,0-1.168-1.142Zm3.5,0a1.155,1.155,0,0,0-1.168,1.142v.011a1.168,1.168,0,0,0,2.335,0v-.011a1.155,1.155,0,0,0-1.168-1.142Zm3.5,0a1.155,1.155,0,0,0-1.168,1.142v.011a1.168,1.168,0,0,0,2.335,0v-.011a1.155,1.155,0,0,0-1.168-1.142Zm.587-9.142h-8.163a.577.577,0,0,0-.584.571v2.271a.577.577,0,0,0,.584.571h8.163a.577.577,0,0,0,.584-.571V285.1a.577.577,0,0,0-.584-.571Zm-.577,2.28H756.56v-1.155h7.009Zm0,0" transform="translate(-753.063 -282.219)" fill="#666"/>
      </g>
    </g>
  </g>
</svg>
